<svg xmlns="http://www.w3.org/2000/svg" width="1920" height="1080"><mask id="b" x="0" y="0" width="1920" height="1080"><path fill="url(#a)" d="M0 0h1920v1080H0z"/></mask><path fill="#512698" d="M0 0h1920v1080H0z"/><g style="transform-origin:center center" stroke="#a5a0cf" stroke-width="1.728" mask="url(#b)"><path fill="#a5a0cf68" d="M0 0h128v128H0z"/><path fill="none" d="M128 0h128v128H128z"/><path fill="#a5a0cff4" d="M256 0h128v128H256z"/><path fill="none" d="M384 0h128v128H384z"/><path fill="#a5a0cf45" d="M512 0h128v128H512z"/><path fill="none" d="M640 0h128v128H640z"/><path fill="#a5a0cf49" d="M768 0h128v128H768z"/><path fill="none" d="M896 0h128v128H896zM1024 0h128v128h-128zM1152 0h128v128h-128z"/><path fill="#a5a0cff8" d="M1280 0h128v128h-128z"/><path fill="none" d="M1408 0h128v128h-128zM1536 0h128v128h-128zM1664 0h128v128h-128zM1792 0h128v128h-128zM0 128h128v128H0z"/><path fill="#a5a0cf1c" d="M128 128h128v128H128z"/><path fill="none" d="M256 128h128v128H256z"/><path fill="#a5a0cfa8" d="M384 128h128v128H384z"/><path fill="none" d="M512 128h128v128H512zM640 128h128v128H640zM768 128h128v128H768zM896 128h128v128H896zM1024 128h128v128h-128zM1152 128h128v128h-128z"/><path fill="#a5a0cf29" d="M1280 128h128v128h-128z"/><path fill="none" d="M1408 128h128v128h-128zM1536 128h128v128h-128zM1664 128h128v128h-128z"/><path fill="#a5a0cf84" d="M1792 128h128v128h-128z"/><path fill="#a5a0cff5" d="M0 256h128v128H0z"/><path fill="#a5a0cf2b" d="M128 256h128v128H128z"/><path fill="none" d="M256 256h128v128H256zM384 256h128v128H384zM512 256h128v128H512z"/><path fill="#a5a0cfd1" d="M640 256h128v128H640z"/><path fill="none" d="M768 256h128v128H768zM896 256h128v128H896z"/><path fill="#a5a0cf83" d="M1024 256h128v128h-128z"/><path fill="none" d="M1152 256h128v128h-128z"/><path fill="#a5a0cf2d" d="M1280 256h128v128h-128z"/><path fill="#a5a0cfc0" d="M1408 256h128v128h-128z"/><path fill="#a5a0cfb5" d="M1536 256h128v128h-128z"/><path fill="none" d="M1664 256h128v128h-128zM1792 256h128v128h-128zM0 384h128v128H0z"/><path fill="#a5a0cf2b" d="M128 384h128v128H128z"/><path fill="none" d="M256 384h128v128H256zM384 384h128v128H384z"/><path fill="#a5a0cfd8" d="M512 384h128v128H512z"/><path fill="none" d="M640 384h128v128H640zM768 384h128v128H768zM896 384h128v128H896zM1024 384h128v128h-128z"/><path fill="#a5a0cf23" d="M1152 384h128v128h-128z"/><path fill="none" d="M1280 384h128v128h-128z"/><path fill="#a5a0cf15" d="M1408 384h128v128h-128z"/><path fill="#a5a0cfc8" d="M1536 384h128v128h-128z"/><path fill="none" d="M1664 384h128v128h-128zM1792 384h128v128h-128z"/><path fill="#a5a0cf9c" d="M0 512h128v128H0z"/><path fill="none" d="M128 512h128v128H128zM256 512h128v128H256zM384 512h128v128H384z"/><path fill="#a5a0cf07" d="M512 512h128v128H512z"/><path fill="none" d="M640 512h128v128H640zM768 512h128v128H768zM896 512h128v128H896zM1024 512h128v128h-128zM1152 512h128v128h-128z"/><path fill="#a5a0cf89" d="M1280 512h128v128h-128z"/><path fill="#a5a0cf82" d="M1408 512h128v128h-128z"/><path fill="#a5a0cf5e" d="M1536 512h128v128h-128z"/><path fill="none" d="M1664 512h128v128h-128zM1792 512h128v128h-128z"/><path fill="#a5a0cfed" d="M0 640h128v128H0z"/><path fill="#a5a0cf9d" d="M128 640h128v128H128z"/><path fill="#a5a0cf89" d="M256 640h128v128H256z"/><path fill="none" d="M384 640h128v128H384zM512 640h128v128H512z"/><path fill="#a5a0cffe" d="M640 640h128v128H640z"/><path fill="none" d="M768 640h128v128H768zM896 640h128v128H896zM1024 640h128v128h-128zM1152 640h128v128h-128z"/><path fill="#a5a0cfab" d="M1280 640h128v128h-128z"/><path fill="#a5a0cf2e" d="M1408 640h128v128h-128z"/><path fill="none" d="M1536 640h128v128h-128z"/><path fill="#a5a0cf54" d="M1664 640h128v128h-128z"/><path fill="none" d="M1792 640h128v128h-128zM0 768h128v128H0zM128 768h128v128H128zM256 768h128v128H256zM384 768h128v128H384z"/><path fill="#a5a0cf98" d="M512 768h128v128H512z"/><path fill="none" d="M640 768h128v128H640z"/><path fill="#a5a0cf39" d="M768 768h128v128H768z"/><path fill="none" d="M896 768h128v128H896zM1024 768h128v128h-128z"/><path fill="#a5a0cfc0" d="M1152 768h128v128h-128z"/><path fill="none" d="M1280 768h128v128h-128z"/><path fill="#a5a0cf29" d="M1408 768h128v128h-128z"/><path fill="#a5a0cf4b" d="M1536 768h128v128h-128z"/><path fill="none" d="M1664 768h128v128h-128zM1792 768h128v128h-128zM0 896h128v128H0zM128 896h128v128H128zM256 896h128v128H256z"/><path fill="#a5a0cfbc" d="M384 896h128v128H384z"/><path fill="none" d="M512 896h128v128H512z"/><path fill="#a5a0cf14" d="M640 896h128v128H640z"/><path fill="none" d="M768 896h128v128H768zM896 896h128v128H896z"/><path fill="#a5a0cfb7" d="M1024 896h128v128h-128z"/><path fill="none" d="M1152 896h128v128h-128z"/><path fill="#a5a0cf75" d="M1280 896h128v128h-128z"/><path fill="none" d="M1408 896h128v128h-128z"/><path fill="#a5a0cf2e" d="M1536 896h128v128h-128z"/><path fill="#a5a0cff0" d="M1664 896h128v128h-128z"/><path fill="none" d="M1792 896h128v128h-128zM0 1024h128v128H0zM128 1024h128v128H128zM256 1024h128v128H256zM384 1024h128v128H384zM512 1024h128v128H512zM640 1024h128v128H640zM768 1024h128v128H768zM896 1024h128v128H896z"/><path fill="#a5a0cf21" d="M1024 1024h128v128h-128z"/><path fill="none" d="M1152 1024h128v128h-128zM1280 1024h128v128h-128z"/><path fill="#a5a0cf06" d="M1408 1024h128v128h-128z"/><path fill="none" d="M1536 1024h128v128h-128zM1664 1024h128v128h-128z"/><path fill="#a5a0cfe2" d="M1792 1024h128v128h-128z"/></g><defs><radialGradient id="a"><stop offset="0" stop-color="#fff"/><stop offset="1" stop-color="#fff"/></radialGradient></defs></svg>